<svg width="21" height="21" viewBox="0 0 21 21" fill="none" xmlns="http://www.w3.org/2000/svg">
<mask id="mask0_9172_33831" style="mask-type:alpha" maskUnits="userSpaceOnUse" x="0" y="0" width="21" height="21">
<rect x="0.655273" y="0.894531" width="20" height="20" fill="#D9D9D9"/>
</mask>
<g mask="url(#mask0_9172_33831)">
<path d="M5.15527 18.8945C4.73861 18.8945 4.38461 18.7485 4.09327 18.4565C3.80127 18.1652 3.65527 17.8112 3.65527 17.3945V5.89453H5.15527V17.3945H14.6553V18.8945H5.15527ZM8.15527 15.8945C7.73861 15.8945 7.38461 15.7485 7.09327 15.4565C6.80127 15.1652 6.65527 14.8112 6.65527 14.3945V4.39453C6.65527 3.97786 6.80127 3.62386 7.09327 3.33253C7.38461 3.04053 7.73861 2.89453 8.15527 2.89453H16.1553C16.5719 2.89453 16.9259 3.04053 17.2173 3.33253C17.5093 3.62386 17.6553 3.97786 17.6553 4.39453V14.3945C17.6553 14.8112 17.5093 15.1652 17.2173 15.4565C16.9259 15.7485 16.5719 15.8945 16.1553 15.8945H8.15527ZM8.15527 14.3945H16.1553V4.39453H8.15527V14.3945Z" fill="#14151A"/>
</g>
</svg>
